<svg version="1.1" id="Layer_1" xmlns="http://www.w3.org/2000/svg" xmlns:xlink="http://www.w3.org/1999/xlink" x="0px" y="0px"
	 width="100%" viewBox="0 0 1833 916" enable-background="new 0 0 1833 916" xml:space="preserve">
<path fill="#051e42" opacity="1.000000" stroke="none"
	d="
M1834.000000,184.000000
	C1834.000000,428.288666 1834.000000,672.577332 1834.000000,917.000000
	C1335.635742,917.000000 837.271484,917.000000 338.638672,916.603943
	C351.795593,915.129456 365.328064,914.773621 378.622009,912.806396
	C399.442017,909.725342 419.982971,905.101501 439.884521,897.988037
	C465.281036,888.910400 488.834625,876.752380 509.570251,859.137939
	C526.205322,845.006897 539.362183,828.328430 548.896667,808.909241
	C558.053589,790.259094 563.023315,770.327271 564.145691,749.580017
	C568.410400,759.264893 572.211365,769.205872 577.045837,778.615967
	C588.824280,801.541931 603.871765,822.016602 622.928284,839.626892
	C635.962097,851.671387 649.908630,862.346375 665.320923,870.952637
	C690.802612,885.181702 717.862183,894.984131 746.742676,900.239197
	C767.703796,904.053223 788.759033,905.402405 809.908081,905.844666
	C820.575439,906.067749 831.290283,904.830566 841.958801,903.951721
	C851.744812,903.145508 861.593872,902.478455 871.241760,900.770569
	C885.110352,898.315613 898.767151,894.664429 912.635071,892.204407
	C916.585510,891.503662 917.051636,890.086853 917.043762,886.830811
	C916.970093,856.164429 917.000000,825.497742 917.000000,794.831177
	C917.000000,792.371643 917.000000,789.912109 917.000000,787.409546
	C906.057983,790.206116 895.449280,793.166382 884.720947,795.599548
	C869.753418,798.994141 854.729553,802.187988 839.236450,802.016479
	C830.885986,801.924011 822.531250,802.118225 814.182922,801.955078
	C809.253723,801.858826 804.275696,801.680054 799.419128,800.910339
	C782.191589,798.180237 765.370483,793.628723 750.424622,784.531128
	C740.322754,778.382080 730.514648,771.264343 722.053406,763.056030
	C714.924622,756.140381 709.405884,747.350098 704.123657,738.803101
	C698.185669,729.195007 694.179077,718.608948 691.883545,706.931885
	C812.762634,706.931885 933.190613,706.931885 1054.308838,706.931885
	C1054.308838,683.515625 1054.308838,660.504456 1054.308838,638.593323
	C1061.414062,644.541809 1068.538696,651.276123 1076.421265,656.959167
	C1098.480347,672.863159 1124.003174,681.228455 1149.888306,687.768799
	C1185.193848,696.689392 1220.940063,703.854126 1256.428223,712.069458
	C1274.717163,716.303345 1292.693237,721.677124 1309.544556,730.201111
	C1322.773560,736.892822 1330.098999,747.553223 1329.918701,762.542908
	C1329.775391,774.455933 1323.260620,783.237671 1314.040405,789.930115
	C1298.339722,801.326355 1280.120850,805.173706 1261.203979,805.921021
	C1240.404175,806.742737 1219.655518,805.675842 1199.118408,801.986328
	C1185.701416,799.575928 1172.148926,797.643799 1158.963013,794.293457
	C1142.704346,790.162231 1126.503174,785.492371 1110.759521,779.735718
	C1095.449463,774.137695 1080.722534,766.931763 1065.800903,760.294250
	C1062.314819,758.743530 1059.076294,756.636475 1055.695557,754.769775
	C1055.316772,755.537598 1055.065430,755.809143 1055.065186,756.080994
	C1055.031494,794.746582 1054.984131,833.412231 1055.137573,872.077148
	C1055.142822,873.400696 1056.908936,875.357727 1058.302612,875.933105
	C1068.451782,880.122803 1078.603027,884.358154 1088.965942,887.969421
	C1115.437378,897.194580 1142.345215,904.878296 1170.136475,909.025574
	C1186.741577,911.503601 1203.337646,915.034668 1220.032715,915.695374
	C1247.703125,916.790527 1275.415771,916.634338 1302.900146,911.167664
	C1327.336670,906.307190 1350.928467,899.188354 1373.226807,888.210571
	C1396.022705,876.987976 1416.574585,862.593140 1433.954712,843.736023
	C1444.221924,832.596497 1453.094971,820.567444 1459.870850,807.143555
	C1468.972656,789.111694 1473.514404,769.767883 1473.897095,748.674683
	C1474.925415,750.185730 1475.557129,750.888977 1475.939453,751.708557
	C1485.719238,772.670959 1498.517334,791.718811 1514.301270,808.492676
	C1524.214844,819.028137 1535.225586,828.651123 1546.469727,837.790833
	C1572.665161,859.083557 1602.390259,874.127991 1634.229980,885.011169
	C1656.981445,892.787842 1680.227539,898.593506 1704.227539,901.009949
	C1717.263428,902.322388 1730.271362,904.343689 1743.336304,904.814453
	C1757.066284,905.309204 1770.865967,904.646790 1784.604858,903.918945
	C1800.298584,903.087646 1815.958984,901.626648 1831.611572,900.440979
	C1831.611572,865.780640 1831.611572,831.942627 1831.611572,798.411194
	C1821.806274,799.295715 1812.373291,800.542603 1802.907959,800.876587
	C1795.169800,801.149597 1787.360474,800.669800 1779.641357,799.919922
	C1768.598633,798.847107 1757.412842,798.091675 1746.638428,795.653381
	C1724.774536,790.705505 1703.873169,782.956177 1684.565552,771.227661
	C1665.919067,759.900818 1649.673950,745.954956 1636.828735,728.271301
	C1624.422607,711.192139 1616.144775,692.169128 1614.195068,671.147400
	C1612.041138,647.924194 1616.454590,625.768616 1627.886108,605.006775
	C1639.754517,583.451965 1656.267578,566.502075 1676.484863,552.905396
	C1693.679565,541.341431 1712.284424,532.753662 1732.203003,527.021790
	C1751.266724,521.535828 1770.731812,518.260559 1790.543579,518.139771
	C1804.258911,518.056091 1817.982178,519.286682 1831.838257,519.936462
	C1831.838257,487.603424 1831.838257,454.637726 1831.838257,421.704926
	C1831.572754,421.475189 1831.362427,421.131409 1831.118530,421.105438
	C1818.092651,419.720032 1805.073608,417.334808 1792.033691,417.212982
	C1764.577759,416.956451 1737.024780,415.422089 1709.707031,419.984680
	C1697.034058,422.101288 1684.167480,423.353455 1671.688110,426.276062
	C1640.384277,433.607269 1610.374634,444.512299 1582.187988,460.281708
	C1554.315796,475.875183 1529.758789,495.366669 1508.831299,519.556274
	C1493.579102,537.186035 1481.623169,556.720764 1472.412720,578.076660
	C1458.989502,609.200134 1454.735718,641.823486 1456.036499,675.392395
	C1456.153809,678.419128 1456.768066,681.426636 1457.151611,684.443054
	C1447.981689,672.241760 1437.557983,662.237183 1425.466309,653.781250
	C1399.284546,635.471558 1369.737061,624.896423 1339.210693,617.188904
	C1306.885376,609.027222 1274.127075,602.595764 1241.681641,594.887817
	C1224.421509,590.787354 1207.108643,586.530273 1191.594482,577.233032
	C1184.347900,572.890381 1179.186523,563.675659 1179.962769,556.474365
	C1181.137085,545.581665 1187.629883,537.969238 1195.872314,532.162537
	C1213.385620,519.824585 1233.704346,515.286621 1254.653687,514.139160
	C1276.570312,512.938660 1298.515625,513.931702 1319.956299,519.111328
	C1334.700439,522.673218 1349.271851,527.013855 1363.777954,531.470520
	C1370.932617,533.668579 1377.764404,536.917542 1384.999756,539.793274
	C1384.999756,505.621094 1384.958862,471.956421 1385.067749,438.292236
	C1385.077759,435.180481 1383.563599,434.633057 1381.082520,433.940094
	C1361.557373,428.486694 1342.001831,423.232758 1321.784546,420.924896
	C1307.987915,419.350037 1294.237671,416.672272 1280.410278,416.221375
	C1257.954224,415.489044 1235.485596,415.712708 1213.064697,418.807373
	C1195.634033,421.213226 1178.482788,424.528137 1161.736084,429.743744
	C1134.398438,438.257812 1109.095215,450.601227 1087.022339,469.306519
	C1071.670654,482.316193 1058.986938,497.293121 1050.034302,515.255432
	C1042.644653,530.081848 1037.749146,545.740112 1036.734253,562.871582
	C1033.846558,556.266052 1031.416138,549.959045 1028.403442,543.943665
	C1015.195435,517.572144 998.647034,493.785828 976.045288,474.343719
	C962.740417,462.898926 948.640503,452.697998 932.913086,445.202179
	C919.691772,438.900818 905.849182,433.685791 891.894897,429.190216
	C870.728455,422.371185 848.693848,419.189331 826.570984,418.201477
	C801.366516,417.076111 776.160522,417.854980 751.211975,422.896698
	C730.014343,427.180450 709.492981,433.300873 689.945862,442.555542
	C673.161926,450.502014 657.427856,460.054260 642.699585,471.508545
	C627.629578,483.228516 614.063416,496.360748 602.419128,511.334778
	C588.651184,529.039673 577.254944,548.213501 568.893799,569.184082
	C557.931702,596.678162 551.910156,625.115234 551.020752,654.662964
	C550.873413,659.556702 551.000000,664.458618 551.000000,670.367554
	C549.277222,667.567749 548.031189,665.751099 546.992676,663.822632
	C537.365051,645.944214 523.312622,631.945679 507.194458,620.141602
	C484.123962,603.245972 458.194061,591.651184 431.071075,583.158203
	C407.961304,575.921753 384.428162,569.975586 360.934418,564.044617
	C338.184937,558.301575 315.172333,553.602783 292.413422,547.894653
	C271.565948,542.665894 250.690308,537.226318 231.629791,526.850647
	C220.335983,520.702881 212.945190,511.658936 213.002396,498.005859
	C213.061310,483.943634 220.556946,473.978088 231.174927,466.021210
	C247.558640,453.743561 266.915924,450.971924 286.540192,450.180298
	C295.847992,449.804840 305.318756,450.775574 314.564056,452.153656
	C329.758057,454.418518 344.720642,457.917542 359.365601,463.911011
	C365.402191,466.439240 371.018585,469.032257 376.783661,471.236542
	C378.162323,471.763702 380.507019,471.586365 381.598114,470.717194
	C385.593506,467.534302 389.225159,463.898071 393.034363,460.477722
	C402.607544,451.881470 411.970001,443.030762 421.843140,434.792877
	C437.189819,421.988037 452.644501,409.286896 468.498871,397.122406
	C491.050293,379.819550 513.627563,362.503326 536.900757,346.202271
	C557.706116,331.629852 579.066772,317.746643 600.908142,304.781982
	C631.041565,286.895355 661.418030,269.312042 692.509277,253.176575
	C720.858215,238.464279 750.093506,225.390854 779.325012,212.470398
	C801.621277,202.615341 824.275085,193.438461 847.218811,185.212067
	C874.894165,175.289108 902.864807,166.088104 931.040222,157.690552
	C957.811584,149.711456 984.874084,142.587585 1012.064331,136.171585
	C1036.767944,130.342331 1061.756470,125.649918 1086.729370,121.053444
	C1109.030640,116.948647 1131.437256,113.349190 1153.881714,110.110901
	C1171.228516,107.608116 1188.684326,105.790482 1206.131226,104.071198
	C1222.664551,102.441948 1239.239380,101.191689 1255.814819,100.047882
	C1268.830444,99.149712 1281.869873,98.530403 1294.908081,98.039436
	C1308.333618,97.533890 1321.770874,97.056480 1335.202393,97.072937
	C1350.634521,97.091843 1366.066895,97.637733 1381.497681,98.008789
	C1393.430908,98.295746 1405.367188,98.541428 1417.292725,99.033669
	C1429.664062,99.544296 1442.031738,100.212097 1454.386841,101.026924
	C1467.359253,101.882477 1480.333130,102.803978 1493.273193,104.043106
	C1508.448730,105.496307 1523.616577,107.103516 1538.736572,109.043213
	C1557.702148,111.476257 1576.677734,113.940926 1595.535278,117.076874
	C1617.066406,120.657478 1638.586792,124.468521 1659.901489,129.139755
	C1682.914307,134.183167 1705.829346,139.815857 1728.515503,146.162796
	C1748.532104,151.762863 1768.313599,158.303345 1787.935425,165.180695
	C1802.181396,170.173889 1815.997314,176.394485 1829.995239,182.044250
	C1829.985474,182.020676 1829.945557,181.988922 1830.074097,182.310318
	C1831.468384,183.087814 1832.734253,183.543915 1834.000000,184.000000
z"/>
<path fill="#FFFFFF" opacity="1.000000" stroke="none"
	d="
M358.999878,463.833405
	C344.720642,457.917542 329.758057,454.418518 314.564056,452.153656
	C305.318756,450.775574 295.847992,449.804840 286.540192,450.180298
	C266.915924,450.971924 247.558640,453.743561 231.174927,466.021210
	C220.556946,473.978088 213.061310,483.943634 213.002396,498.005859
	C212.945190,511.658936 220.335983,520.702881 231.629791,526.850647
	C250.690308,537.226318 271.565948,542.665894 292.413422,547.894653
	C315.172333,553.602783 338.184937,558.301575 360.934418,564.044617
	C384.428162,569.975586 407.961304,575.921753 431.071075,583.158203
	C458.194061,591.651184 484.123962,603.245972 507.194458,620.141602
	C523.312622,631.945679 537.365051,645.944214 546.992676,663.822632
	C548.031189,665.751099 549.277222,667.567749 551.000000,670.367554
	C551.000000,664.458618 550.873413,659.556702 551.020752,654.662964
	C551.910156,625.115234 557.931702,596.678162 568.893799,569.184082
	C577.254944,548.213501 588.651184,529.039673 602.419128,511.334778
	C614.063416,496.360748 627.629578,483.228516 642.699585,471.508545
	C657.427856,460.054260 673.161926,450.502014 689.945862,442.555542
	C709.492981,433.300873 730.014343,427.180450 751.211975,422.896698
	C776.160522,417.854980 801.366516,417.076111 826.570984,418.201477
	C848.693848,419.189331 870.728455,422.371185 891.894897,429.190216
	C905.849182,433.685791 919.691772,438.900818 932.913086,445.202179
	C948.640503,452.697998 962.740417,462.898926 976.045288,474.343719
	C998.647034,493.785828 1015.195435,517.572144 1028.403442,543.943665
	C1031.416138,549.959045 1033.846558,556.266052 1036.734253,562.871582
	C1037.749146,545.740112 1042.644653,530.081848 1050.034302,515.255432
	C1058.986938,497.293121 1071.670654,482.316193 1087.022339,469.306519
	C1109.095215,450.601227 1134.398438,438.257812 1161.736084,429.743744
	C1178.482788,424.528137 1195.634033,421.213226 1213.064697,418.807373
	C1235.485596,415.712708 1257.954224,415.489044 1280.410278,416.221375
	C1294.237671,416.672272 1307.987915,419.350037 1321.784546,420.924896
	C1342.001831,423.232758 1361.557373,428.486694 1381.082520,433.940094
	C1383.563599,434.633057 1385.077759,435.180481 1385.067749,438.292236
	C1384.958862,471.956421 1384.999756,505.621094 1384.999756,539.793274
	C1377.764404,536.917542 1370.932617,533.668579 1363.777954,531.470520
	C1349.271851,527.013855 1334.700439,522.673218 1319.956299,519.111328
	C1298.515625,513.931702 1276.570312,512.938660 1254.653687,514.139160
	C1233.704346,515.286621 1213.385620,519.824585 1195.872314,532.162537
	C1187.629883,537.969238 1181.137085,545.581665 1179.962769,556.474365
	C1179.186523,563.675659 1184.347900,572.890381 1191.594482,577.233032
	C1207.108643,586.530273 1224.421509,590.787354 1241.681641,594.887817
	C1274.127075,602.595764 1306.885376,609.027222 1339.210693,617.188904
	C1369.737061,624.896423 1399.284546,635.471558 1425.466309,653.781250
	C1437.557983,662.237183 1447.981689,672.241760 1457.151611,684.443054
	C1456.768066,681.426636 1456.153809,678.419128 1456.036499,675.392395
	C1454.735718,641.823486 1458.989502,609.200134 1472.412720,578.076660
	C1481.623169,556.720764 1493.579102,537.186035 1508.831299,519.556274
	C1529.758789,495.366669 1554.315796,475.875183 1582.187988,460.281708
	C1610.374634,444.512299 1640.384277,433.607269 1671.688110,426.276062
	C1684.167480,423.353455 1697.034058,422.101288 1709.707031,419.984680
	C1737.024780,415.422089 1764.577759,416.956451 1792.033691,417.212982
	C1805.073608,417.334808 1818.092651,419.720032 1831.118530,421.105438
	C1831.362427,421.131409 1831.572754,421.475189 1831.838257,421.704926
	C1831.838257,454.637726 1831.838257,487.603424 1831.838257,519.936462
	C1817.982178,519.286682 1804.258911,518.056091 1790.543579,518.139771
	C1770.731812,518.260559 1751.266724,521.535828 1732.203003,527.021790
	C1712.284424,532.753662 1693.679565,541.341431 1676.484863,552.905396
	C1656.267578,566.502075 1639.754517,583.451965 1627.886108,605.006775
	C1616.454590,625.768616 1612.041138,647.924194 1614.195068,671.147400
	C1616.144775,692.169128 1624.422607,711.192139 1636.828735,728.271301
	C1649.673950,745.954956 1665.919067,759.900818 1684.565552,771.227661
	C1703.873169,782.956177 1724.774536,790.705505 1746.638428,795.653381
	C1757.412842,798.091675 1768.598633,798.847107 1779.641357,799.919922
	C1787.360474,800.669800 1795.169800,801.149597 1802.907959,800.876587
	C1812.373291,800.542603 1821.806274,799.295715 1831.611572,798.411194
	C1831.611572,831.942627 1831.611572,865.780640 1831.611572,900.440979
	C1815.958984,901.626648 1800.298584,903.087646 1784.604858,903.918945
	C1770.865967,904.646790 1757.066284,905.309204 1743.336304,904.814453
	C1730.271362,904.343689 1717.263428,902.322388 1704.227539,901.009949
	C1680.227539,898.593506 1656.981445,892.787842 1634.229980,885.011169
	C1602.390259,874.127991 1572.665161,859.083557 1546.469727,837.790833
	C1535.225586,828.651123 1524.214844,819.028137 1514.301270,808.492676
	C1498.517334,791.718811 1485.719238,772.670959 1475.939453,751.708557
	C1475.557129,750.888977 1474.925415,750.185730 1473.897095,748.674683
	C1473.514404,769.767883 1468.972656,789.111694 1459.870850,807.143555
	C1453.094971,820.567444 1444.221924,832.596497 1433.954712,843.736023
	C1416.574585,862.593140 1396.022705,876.987976 1373.226807,888.210571
	C1350.928467,899.188354 1327.336670,906.307190 1302.900146,911.167664
	C1275.415771,916.634338 1247.703125,916.790527 1220.032715,915.695374
	C1203.337646,915.034668 1186.741577,911.503601 1170.136475,909.025574
	C1142.345215,904.878296 1115.437378,897.194580 1088.965942,887.969421
	C1078.603027,884.358154 1068.451782,880.122803 1058.302612,875.933105
	C1056.908936,875.357727 1055.142822,873.400696 1055.137573,872.077148
	C1054.984131,833.412231 1055.031494,794.746582 1055.065186,756.080994
	C1055.065430,755.809143 1055.316772,755.537598 1055.695557,754.769775
	C1059.076294,756.636475 1062.314819,758.743530 1065.800903,760.294250
	C1080.722534,766.931763 1095.449463,774.137695 1110.759521,779.735718
	C1126.503174,785.492371 1142.704346,790.162231 1158.963013,794.293457
	C1172.148926,797.643799 1185.701416,799.575928 1199.118408,801.986328
	C1219.655518,805.675842 1240.404175,806.742737 1261.203979,805.921021
	C1280.120850,805.173706 1298.339722,801.326355 1314.040405,789.930115
	C1323.260620,783.237671 1329.775391,774.455933 1329.918701,762.542908
	C1330.098999,747.553223 1322.773560,736.892822 1309.544556,730.201111
	C1292.693237,721.677124 1274.717163,716.303345 1256.428223,712.069458
	C1220.940063,703.854126 1185.193848,696.689392 1149.888306,687.768799
	C1124.003174,681.228455 1098.480347,672.863159 1076.421265,656.959167
	C1068.538696,651.276123 1061.414062,644.541809 1054.308838,638.593323
	C1054.308838,660.504456 1054.308838,683.515625 1054.308838,706.931885
	C933.190613,706.931885 812.762634,706.931885 691.883545,706.931885
	C694.179077,718.608948 698.185669,729.195007 704.123657,738.803101
	C709.405884,747.350098 714.924622,756.140381 722.053406,763.056030
	C730.514648,771.264343 740.322754,778.382080 750.424622,784.531128
	C765.370483,793.628723 782.191589,798.180237 799.419128,800.910339
	C804.275696,801.680054 809.253723,801.858826 814.182922,801.955078
	C822.531250,802.118225 830.885986,801.924011 839.236450,802.016479
	C854.729553,802.187988 869.753418,798.994141 884.720947,795.599548
	C895.449280,793.166382 906.057983,790.206116 917.000000,787.409546
	C917.000000,789.912109 917.000000,792.371643 917.000000,794.831177
	C917.000000,825.497742 916.970093,856.164429 917.043762,886.830811
	C917.051636,890.086853 916.585510,891.503662 912.635071,892.204407
	C898.767151,894.664429 885.110352,898.315613 871.241760,900.770569
	C861.593872,902.478455 851.744812,903.145508 841.958801,903.951721
	C831.290283,904.830566 820.575439,906.067749 809.908081,905.844666
	C788.759033,905.402405 767.703796,904.053223 746.742676,900.239197
	C717.862183,894.984131 690.802612,885.181702 665.320923,870.952637
	C649.908630,862.346375 635.962097,851.671387 622.928284,839.626892
	C603.871765,822.016602 588.824280,801.541931 577.045837,778.615967
	C572.211365,769.205872 568.410400,759.264893 564.145691,749.580017
	C563.023315,770.327271 558.053589,790.259094 548.896667,808.909241
	C539.362183,828.328430 526.205322,845.006897 509.570251,859.137939
	C488.834625,876.752380 465.281036,888.910400 439.884521,897.988037
	C419.982971,905.101501 399.442017,909.725342 378.622009,912.806396
	C365.328064,914.773621 351.795593,915.129456 338.185059,916.603943
	C321.979095,917.000000 305.958221,917.000000 289.283142,916.603638
	C271.037048,914.472778 253.373535,913.257874 235.875000,910.845886
	C220.805496,908.768799 205.668869,906.263245 191.019379,902.269287
	C169.105515,896.294922 147.426025,889.331177 125.953857,881.901001
	C101.974998,873.603455 78.909950,863.080078 57.324352,850.021729
	C61.159458,844.404968 64.525284,838.833252 68.206139,833.478027
	C86.055748,807.508911 103.907417,781.540222 121.947304,755.703247
	C126.966362,748.514893 132.631454,741.777710 138.320831,734.982849
	C148.161209,740.970154 157.426331,747.283569 167.254089,752.546326
	C187.246262,763.252197 207.965225,772.361328 229.733475,778.963745
	C257.079102,787.257751 285.080933,791.560059 313.580994,791.815430
	C325.673767,791.923706 337.838287,790.425232 349.873169,788.894165
	C363.460144,787.165649 376.210266,782.968262 387.827698,775.137024
	C405.659027,763.116821 406.434387,737.004028 393.091980,723.594666
	C384.665497,715.125793 374.324799,709.728577 363.490143,705.119995
	C339.883881,695.078857 315.056091,689.038086 290.236572,683.074951
	C269.779449,678.159973 249.154022,673.949768 228.646042,669.240662
	C217.469818,666.674377 206.382736,663.719910 195.043060,660.612549
	C193.762390,659.941772 192.701584,659.573120 191.624619,659.260193
	C183.084869,656.778625 174.542023,654.307678 165.816467,651.507629
	C148.077454,645.842468 131.469345,638.274353 115.674599,629.049622
	C101.194099,620.592468 88.051224,610.300171 77.591942,597.030640
	C59.825638,574.490845 52.633663,548.130737 51.121357,520.054077
	C50.342331,505.591064 50.934303,491.117310 53.906025,476.767029
	C57.552330,459.159210 63.657730,442.612457 73.165901,427.362244
	C82.337624,412.651703 93.060631,399.153381 106.977592,388.696503
	C118.108498,380.333038 129.447662,372.072021 141.475494,365.116180
	C161.746918,353.392975 183.838211,346.143372 206.604843,340.579498
	C230.546265,334.728455 254.861649,332.047638 279.316833,331.236359
	C296.284424,330.673431 313.356079,331.907898 330.324768,333.126129
	C344.811279,334.166168 359.339661,335.637299 373.627411,338.170319
	C390.812042,341.216980 407.827576,345.321014 424.787384,349.491669
	C434.325775,351.837280 443.604218,355.240082 452.990234,358.509521
	C452.651428,359.398956 452.413177,360.034180 451.979584,360.479034
	C437.714233,375.115509 423.404999,389.709290 409.166168,404.371429
	C405.481873,408.165253 401.907257,412.076904 398.459229,416.086609
	C388.804962,427.313477 379.177612,438.565033 369.677582,449.922211
	C365.930328,454.402008 362.548248,459.187256 358.999878,463.833405
M830.281860,528.005981
	C822.268311,527.338501 814.240479,526.011719 806.245239,526.185791
	C797.958984,526.366272 789.625854,527.576172 781.451355,529.084412
	C761.040894,532.850281 742.974426,541.672424 727.727295,555.834412
	C714.343872,568.265320 705.056091,583.567749 698.382996,600.396423
	C695.443787,607.808838 693.698303,615.694702 691.277100,623.813965
	C768.765442,623.813965 845.189575,623.813965 921.404846,623.813965
	C921.154175,621.543640 921.132935,619.376038 920.653442,617.314941
	C915.888489,596.828857 907.876587,578.085754 893.736023,561.961060
	C883.000488,549.719421 870.165955,540.987183 855.323242,535.126831
	C847.552429,532.058716 839.238342,530.366760 830.281860,528.005981
z"/>
<path fill="#051e42" opacity="1.000000" stroke="none"
	d="
M452.999756,358.166595
	C443.604218,355.240082 434.325775,351.837280 424.787384,349.491669
	C407.827576,345.321014 390.812042,341.216980 373.627411,338.170319
	C359.339661,335.637299 344.811279,334.166168 330.324768,333.126129
	C313.356079,331.907898 296.284424,330.673431 279.316833,331.236359
	C254.861649,332.047638 230.546265,334.728455 206.604843,340.579498
	C183.838211,346.143372 161.746918,353.392975 141.475494,365.116180
	C129.447662,372.072021 118.108498,380.333038 106.977592,388.696503
	C93.060631,399.153381 82.337624,412.651703 73.165901,427.362244
	C63.657730,442.612457 57.552330,459.159210 53.906025,476.767029
	C50.934303,491.117310 50.342331,505.591064 51.121357,520.054077
	C52.633663,548.130737 59.825638,574.490845 77.591942,597.030640
	C88.051224,610.300171 101.194099,620.592468 115.674599,629.049622
	C131.469345,638.274353 148.077454,645.842468 165.500244,651.660034
	C164.534531,652.642273 163.604538,653.035583 162.882324,653.666626
	C144.046066,670.126892 124.537994,685.894470 106.574059,703.259094
	C79.075760,729.839905 52.643997,757.524048 25.764002,784.744202
	C25.181593,785.333923 24.667881,785.990845 24.097918,786.593506
	C16.401133,794.731384 8.700048,802.865234 1.000014,811.000000
	C1.000000,541.057861 1.000000,271.115723 1.000000,1.000000
	C411.020905,1.000000 821.041809,1.000000 1231.327637,1.384383
	C1223.838257,2.178419 1216.072021,2.433644 1208.331909,3.030027
	C1192.437500,4.254741 1176.531372,5.416046 1160.677734,7.062359
	C1144.241455,8.769184 1127.776611,10.500136 1111.479248,13.167728
	C1092.856201,16.216024 1074.271240,19.745342 1055.908569,24.078152
	C1027.456665,30.791588 999.028381,37.737534 970.930115,45.773777
	C949.556091,51.886864 928.395325,59.045078 907.702637,67.171738
	C875.779175,79.709076 843.894226,92.521248 812.820007,106.992790
	C783.846191,120.486145 755.588074,135.648392 727.692322,151.284500
	C703.699341,164.733002 680.431458,179.527588 657.278992,194.405426
	C640.419922,205.239136 624.111938,216.957474 607.850098,228.686066
	C591.830566,240.239853 575.933960,251.993515 560.435791,264.232300
	C545.758484,275.822876 531.487915,287.949341 517.367371,300.218506
	C501.315399,314.165771 485.610046,328.512543 469.792267,342.728210
	C464.137329,347.810425 458.594025,353.016876 452.999756,358.166595
z"/>
<path fill="#FFFFFF" opacity="1.000000" stroke="none"
	d="
M452.990234,358.509521
	C458.594025,353.016876 464.137329,347.810425 469.792267,342.728210
	C485.610046,328.512543 501.315399,314.165771 517.367371,300.218506
	C531.487915,287.949341 545.758484,275.822876 560.435791,264.232300
	C575.933960,251.993515 591.830566,240.239853 607.850098,228.686066
	C624.111938,216.957474 640.419922,205.239136 657.278992,194.405426
	C680.431458,179.527588 703.699341,164.733002 727.692322,151.284500
	C755.588074,135.648392 783.846191,120.486145 812.820007,106.992790
	C843.894226,92.521248 875.779175,79.709076 907.702637,67.171738
	C928.395325,59.045078 949.556091,51.886864 970.930115,45.773777
	C999.028381,37.737534 1027.456665,30.791588 1055.908569,24.078152
	C1074.271240,19.745342 1092.856201,16.216024 1111.479248,13.167728
	C1127.776611,10.500136 1144.241455,8.769184 1160.677734,7.062359
	C1176.531372,5.416046 1192.437500,4.254741 1208.331909,3.030027
	C1216.072021,2.433644 1223.838257,2.178419 1231.796387,1.384383
	C1256.687622,1.000000 1281.375122,1.000000 1306.734863,1.384299
	C1314.498535,2.178364 1321.599243,2.470251 1328.679321,3.024693
	C1340.149536,3.922933 1351.629517,4.782360 1363.063110,6.041659
	C1379.497681,7.851762 1396.000488,9.383998 1412.281250,12.165108
	C1434.423828,15.947588 1456.572388,20.030396 1478.374268,25.385576
	C1504.552368,31.815704 1530.497559,39.294640 1556.295898,47.134842
	C1573.387695,52.329128 1590.257202,58.423065 1606.847534,65.060867
	C1634.180542,75.996971 1661.631836,86.797440 1688.242920,99.332977
	C1714.812622,111.848969 1740.770630,125.792793 1766.324341,140.295532
	C1787.557495,152.346130 1807.824585,166.100784 1828.465698,179.185715
	C1829.266113,179.693130 1829.504639,181.086914 1830.005127,182.067749
	C1815.997314,176.394485 1802.181396,170.173889 1787.935425,165.180695
	C1768.313599,158.303345 1748.532104,151.762863 1728.515503,146.162796
	C1705.829346,139.815857 1682.914307,134.183167 1659.901489,129.139755
	C1638.586792,124.468521 1617.066406,120.657478 1595.535278,117.076874
	C1576.677734,113.940926 1557.702148,111.476257 1538.736572,109.043213
	C1523.616577,107.103516 1508.448730,105.496307 1493.273193,104.043106
	C1480.333130,102.803978 1467.359253,101.882477 1454.386841,101.026924
	C1442.031738,100.212097 1429.664062,99.544296 1417.292725,99.033669
	C1405.367188,98.541428 1393.430908,98.295746 1381.497681,98.008789
	C1366.066895,97.637733 1350.634521,97.091843 1335.202393,97.072937
	C1321.770874,97.056480 1308.333618,97.533890 1294.908081,98.039436
	C1281.869873,98.530403 1268.830444,99.149712 1255.814819,100.047882
	C1239.239380,101.191689 1222.664551,102.441948 1206.131226,104.071198
	C1188.684326,105.790482 1171.228516,107.608116 1153.881714,110.110901
	C1131.437256,113.349190 1109.030640,116.948647 1086.729370,121.053444
	C1061.756470,125.649918 1036.767944,130.342331 1012.064331,136.171585
	C984.874084,142.587585 957.811584,149.711456 931.040222,157.690552
	C902.864807,166.088104 874.894165,175.289108 847.218811,185.212067
	C824.275085,193.438461 801.621277,202.615341 779.325012,212.470398
	C750.093506,225.390854 720.858215,238.464279 692.509277,253.176575
	C661.418030,269.312042 631.041565,286.895355 600.908142,304.781982
	C579.066772,317.746643 557.706116,331.629852 536.900757,346.202271
	C513.627563,362.503326 491.050293,379.819550 468.498871,397.122406
	C452.644501,409.286896 437.189819,421.988037 421.843140,434.792877
	C411.970001,443.030762 402.607544,451.881470 393.034363,460.477722
	C389.225159,463.898071 385.593506,467.534302 381.598114,470.717194
	C380.507019,471.586365 378.162323,471.763702 376.783661,471.236542
	C371.018585,469.032257 365.402191,466.439240 359.365601,463.911011
	C362.548248,459.187256 365.930328,454.402008 369.677582,449.922211
	C379.177612,438.565033 388.804962,427.313477 398.459229,416.086609
	C401.907257,412.076904 405.481873,408.165253 409.166168,404.371429
	C423.404999,389.709290 437.714233,375.115509 451.979584,360.479034
	C452.413177,360.034180 452.651428,359.398956 452.990234,358.509521
z"/>
<path fill="#051e42" opacity="1.000000" stroke="none"
	d="
M1829.995361,182.044189
	C1829.504639,181.086914 1829.266113,179.693130 1828.465698,179.185715
	C1807.824585,166.100784 1787.557495,152.346130 1766.324341,140.295532
	C1740.770630,125.792793 1714.812622,111.848969 1688.242920,99.332977
	C1661.631836,86.797440 1634.180542,75.996971 1606.847534,65.060867
	C1590.257202,58.423065 1573.387695,52.329128 1556.295898,47.134842
	C1530.497559,39.294640 1504.552368,31.815704 1478.374268,25.385576
	C1456.572388,20.030396 1434.423828,15.947588 1412.281250,12.165108
	C1396.000488,9.383998 1379.497681,7.851762 1363.063110,6.041659
	C1351.629517,4.782360 1340.149536,3.922933 1328.679321,3.024693
	C1321.599243,2.470251 1314.498535,2.178364 1307.203613,1.384299
	C1482.558228,1.000000 1658.116577,1.000000 1834.000000,1.000000
	C1834.000000,61.353840 1834.000000,121.708260 1833.634277,182.409821
	C1832.160889,182.500961 1831.053223,182.244949 1829.945557,181.988922
	C1829.945557,181.988922 1829.985474,182.020676 1829.995361,182.044189
z"/>
<path fill="#FFFFFF" opacity="1.000000" stroke="none"
	d="
M1.000014,811.375000
	C8.700048,802.865234 16.401133,794.731384 24.097918,786.593506
	C24.667881,785.990845 25.181593,785.333923 25.764002,784.744202
	C52.643997,757.524048 79.075760,729.839905 106.574059,703.259094
	C124.537994,685.894470 144.046066,670.126892 162.882324,653.666626
	C163.604538,653.035583 164.534531,652.642273 165.683899,651.985840
	C174.542023,654.307678 183.084869,656.778625 191.624619,659.260193
	C192.701584,659.573120 193.762390,659.941772 194.873260,660.923096
	C175.943939,685.985596 156.972061,710.409546 138.000183,734.833496
	C132.631454,741.777710 126.966362,748.514893 121.947304,755.703247
	C103.907417,781.540222 86.055748,807.508911 68.206139,833.478027
	C64.525284,838.833252 61.159458,844.404968 56.964531,849.944580
	C48.939121,845.596619 41.442448,841.416748 34.291862,836.711060
	C23.071836,829.327271 12.085373,821.588440 0.999997,814.000000
	C1.000000,813.250000 1.000000,812.500000 1.000014,811.375000
z"/>
<path fill="#051e42" opacity="1.000000" stroke="none"
	d="
M0.999997,814.468628
	C12.085373,821.588440 23.071836,829.327271 34.291862,836.711060
	C41.442448,841.416748 48.939121,845.596619 56.640442,850.089417
	C78.909950,863.080078 101.974998,873.603455 125.953857,881.901001
	C147.426025,889.331177 169.105515,896.294922 191.019379,902.269287
	C205.668869,906.263245 220.805496,908.768799 235.875000,910.845886
	C253.373535,913.257874 271.037048,914.472778 288.814484,916.603638
	C193.107498,917.000000 97.214989,917.000000 1.000000,917.000000
	C1.000000,882.979797 1.000000,848.958557 0.999997,814.468628
z"/>
<path fill="#FFFFFF" opacity="1.000000" stroke="none"
	d="
M1830.074097,182.310318
	C1831.053223,182.244949 1832.160889,182.500961 1833.634277,182.878479
	C1834.000000,183.000000 1834.000000,183.500000 1834.000000,183.750000
	C1832.734253,183.543915 1831.468384,183.087814 1830.074097,182.310318
z"/>
<path fill="#051e42" opacity="1.000000" stroke="none"
	d="
M138.320831,734.982849
	C156.972061,710.409546 175.943939,685.985596 195.085632,661.251099
	C206.382736,663.719910 217.469818,666.674377 228.646042,669.240662
	C249.154022,673.949768 269.779449,678.159973 290.236572,683.074951
	C315.056091,689.038086 339.883881,695.078857 363.490143,705.119995
	C374.324799,709.728577 384.665497,715.125793 393.091980,723.594666
	C406.434387,737.004028 405.659027,763.116821 387.827698,775.137024
	C376.210266,782.968262 363.460144,787.165649 349.873169,788.894165
	C337.838287,790.425232 325.673767,791.923706 313.580994,791.815430
	C285.080933,791.560059 257.079102,787.257751 229.733475,778.963745
	C207.965225,772.361328 187.246262,763.252197 167.254089,752.546326
	C157.426331,747.283569 148.161209,740.970154 138.320831,734.982849
z"/>
<path fill="#051e42" opacity="1.000000" stroke="none"
	d="
M830.725708,528.029663
	C839.238342,530.366760 847.552429,532.058716 855.323242,535.126831
	C870.165955,540.987183 883.000488,549.719421 893.736023,561.961060
	C907.876587,578.085754 915.888489,596.828857 920.653442,617.314941
	C921.132935,619.376038 921.154175,621.543640 921.404846,623.813965
	C845.189575,623.813965 768.765442,623.813965 691.277100,623.813965
	C693.698303,615.694702 695.443787,607.808838 698.382996,600.396423
	C705.056091,583.567749 714.343872,568.265320 727.727295,555.834412
	C742.974426,541.672424 761.040894,532.850281 781.451355,529.084412
	C789.625854,527.576172 797.958984,526.366272 806.245239,526.185791
	C814.240479,526.011719 822.268311,527.338501 830.725708,528.029663
z"/>
</svg>
